<svg width="40" height="40" viewBox="0 0 40 40" fill="none" xmlns="http://www.w3.org/2000/svg">
<path d="M12.0262 3.82283C11.4686 4.52191 11.0159 5.27524 10.6679 6.08282C10.3921 6.74303 10.1952 7.42027 10.0771 8.11454C9.99897 8.49741 9.95695 8.88824 9.95103 9.28703C9.86588 10.9 10.2035 12.4072 10.9639 13.8087C11.2038 14.2514 11.6236 14.8501 11.8629 15.2905C12.532 16.5202 12.4582 17.8355 11.6969 18.9796C9.76334 21.8856 4.7929 21.354 3.72229 17.9471C3.44687 17.0701 3.60568 16.082 4.31535 15.4516C4.7718 15.0456 5.51256 14.9756 5.9157 15.5144C5.99344 15.7117 6.02417 15.9385 6.00788 16.1948C6.00418 16.2533 6.0412 16.3597 6.11894 16.5141C6.29775 16.8679 6.61038 17.1301 7.0013 17.2389C8.05081 17.5311 8.92706 16.6752 9.00036 15.6532C9.10698 14.1708 8.19685 12.8134 6.933 12.1385C5.09109 11.1555 2.86159 11.7609 1.51278 13.2666C1.25105 13.5528 1.02597 13.867 0.837539 14.2091C0.430693 14.8834 0.175998 15.5918 0.0734536 16.3342C-0.0350139 17.1169 -0.0233524 17.903 0.108437 18.6925C0.222088 19.406 0.42477 20.036 0.716484 20.5826C1.75674 22.5317 3.31378 23.8612 5.38762 24.571C5.73708 24.6906 6.09506 24.783 6.46156 24.8482C7.87941 25.1011 9.2893 25.0335 10.6912 24.6454C12.2135 24.2241 13.4436 23.3643 14.3817 22.0661C14.7156 21.604 14.964 21.1328 15.1269 20.6525L15.2874 20.1077C15.2892 20.1013 15.2933 20.0959 15.2988 20.0922C15.3043 20.0886 15.3109 20.087 15.3175 20.0878C15.324 20.0886 15.3301 20.0917 15.3345 20.0966C15.339 20.1015 15.3416 20.1078 15.3418 20.1143C15.3868 21.0519 15.3579 22.0044 15.3485 22.9436C15.3437 23.4317 15.3161 23.7999 15.2657 24.0484C15.0631 25.0487 14.4228 25.9262 13.6526 26.5944C13.2728 26.9238 12.7342 27.2737 12.2744 27.6069C11.715 28.0124 11.2215 28.4802 10.794 29.0105C9.70522 30.4098 9.20064 31.9981 9.28023 33.7754C9.33835 35.0832 9.78944 36.2563 10.6335 37.2945C11.3095 38.1262 12.1296 38.7144 13.094 39.0591C15.9849 40.0927 19.0945 37.8638 18.8213 34.7463C18.7795 34.2653 18.6231 33.8369 18.3521 33.461C17.9201 32.8606 17.1265 32.6024 16.4569 32.985C15.9908 33.2513 15.7479 33.649 15.7283 34.1781C15.7257 34.2455 15.7416 34.373 15.7761 34.5608C15.9393 35.4494 15.1425 36.0621 14.3173 35.7866C13.3433 35.4617 12.9063 34.4158 12.9802 33.4555C13.1473 31.2732 15.1591 30.659 16.6612 29.4676C18.0006 28.4056 18.838 27.0289 19.1734 25.3375C19.2341 25.0313 19.2703 24.6638 19.2822 24.235C19.297 23.7162 19.3013 23.1971 19.295 22.6776C19.3001 22.3962 19.3029 22.1146 19.3033 21.8328C19.305 20.7014 20.7321 20.7336 20.7321 21.7778C20.7321 22.3525 20.7332 22.9266 20.7354 23.5002C20.7121 24.2311 20.7398 24.9726 20.9175 25.6713C21.3455 27.349 22.2819 28.6941 23.7268 29.7064C24.4464 30.2102 25.2327 30.6245 25.8835 31.2027C27.0119 32.2041 27.445 33.7665 26.5999 35.1017C26.2356 35.6777 25.4793 36.0465 24.8196 35.7277C24.3224 35.4878 24.1247 35.104 24.2265 34.5763C24.271 34.3475 24.2934 34.2279 24.2937 34.2175C24.3337 33.476 23.6151 32.7984 22.8927 32.7968C21.8227 32.7934 21.2918 33.7782 21.1985 34.7235C21.1382 35.3352 21.1957 35.8912 21.3712 36.3914C21.6962 37.3171 22.2493 38.0456 23.0304 38.577C24.1627 39.3462 25.6114 39.5157 26.9025 39.0752C28.0097 38.6975 28.9012 38.0232 29.5768 37.0524C30.7555 35.3583 31.0485 33.4881 30.4558 31.4415C30.0623 30.0982 29.3515 28.9699 28.3235 28.0568C27.5927 27.4075 26.6732 26.946 26.0018 26.275C25.391 25.6652 24.9206 24.9259 24.7313 24.0761C24.6843 23.8647 24.6606 23.589 24.6602 23.2491C24.6591 22.2009 24.6587 21.1561 24.6591 20.1149C24.6587 20.1117 24.6595 20.1086 24.6614 20.1062C24.6633 20.1037 24.6662 20.1022 24.6694 20.1019C24.6725 20.1016 24.6758 20.1026 24.6783 20.1046C24.6809 20.1066 24.6825 20.1095 24.683 20.1127C24.7518 20.4045 24.8555 20.6816 24.9939 20.9441C25.9529 23.1236 28.0514 24.5405 30.3803 24.9021C32.0436 25.1601 33.6645 24.97 35.243 24.3316C37.5891 23.3824 39.4183 21.2263 39.8808 18.7264C40.0826 17.6163 40.0282 16.5332 39.7176 15.4772C39.4647 14.6577 39.0647 13.9414 38.5176 13.3282C38.0248 12.7491 37.4444 12.3194 36.7762 12.0391C35.4712 11.4371 33.8803 11.5609 32.6992 12.349C31.5053 13.1461 30.628 14.749 31.1027 16.177C31.4404 17.0634 32.4138 17.6255 33.2934 17.1295C33.6327 16.9385 33.8464 16.6435 33.9464 16.2742C33.9919 16.107 33.9636 15.9126 33.988 15.7271C34.0054 15.699 34.0149 15.666 34.0164 15.6282C34.1419 15.4061 34.329 15.2591 34.5778 15.1872C35.3207 14.9717 35.931 15.5099 36.197 16.1537C36.5918 17.109 36.2936 18.2009 35.7178 19.0102C35.0696 19.9207 34.1972 20.4941 33.1007 20.7303C32.2911 20.9047 31.5273 20.9019 30.8095 20.722C29.5007 20.3937 28.3096 19.4062 27.8504 18.1171C27.5494 17.2713 27.6077 16.4184 28.0253 15.5583C28.1704 15.2602 28.3677 14.9175 28.6172 14.5302C29.6727 12.8939 30.1426 11.0901 30.0271 9.11874L29.9855 8.53888C29.8922 7.68909 29.6677 6.86948 29.3119 6.08004C28.9254 5.11732 28.3794 4.24994 27.6738 3.47791C26.183 1.81906 24.3463 0.740626 22.1636 0.242601C20.7317 -0.0839844 19.2877 -0.0808371 17.8318 0.252043C15.4766 0.791169 13.5414 1.98143 12.0262 3.82283Z" fill="url(#paint0_linear_173_787)"/>
<path d="M24.7422 12.5591C25.8389 13.1306 26.1327 14.4042 25.4846 15.4373C25.162 15.951 24.6128 16.2321 24.0053 16.2637C22.807 16.3265 21.9796 15.3062 22.0457 14.1259C22.0986 13.7109 22.2526 13.3545 22.5077 13.0568C23.087 12.3803 23.8319 12.2144 24.7422 12.5591Z" fill="#FCFFFE"/>
<path d="M17.6843 13.2539C18.1763 14.0643 18.0336 15.1262 17.3656 15.7728C16.5726 16.5409 15.2516 16.3909 14.6013 15.5311C13.94 14.6564 14.1149 13.515 14.9134 12.7668C15.868 12.1042 17.0413 12.3442 17.6843 13.2539Z" fill="#FCFFFE"/>
<path d="M15.8434 15.091C16.2838 15.2332 16.7537 14.9988 16.893 14.5674C17.0324 14.136 16.7883 13.6709 16.3479 13.5286C15.9075 13.3863 15.4376 13.6208 15.2983 14.0522C15.159 14.4836 15.403 14.9487 15.8434 15.091Z" fill="#0E012E"/>
<path d="M23.6152 15.0554C24.0342 15.2376 24.5193 15.0511 24.6985 14.6387C24.8778 14.2263 24.6834 13.7442 24.2644 13.562C23.8453 13.3797 23.3603 13.5663 23.181 13.9787C23.0017 14.3911 23.1961 14.8731 23.6152 15.0554Z" fill="#0E012E"/>
<defs>
<linearGradient id="paint0_linear_173_787" x1="20" y1="0" x2="20" y2="39.3151" gradientUnits="userSpaceOnUse">
<stop stop-color="#00D39C"/>
<stop offset="1" stop-color="#00664B"/>
</linearGradient>
</defs>
</svg>
