<svg width="83" height="81" viewBox="0 0 83 81" fill="none" xmlns="http://www.w3.org/2000/svg">
<path d="M25.2708 8.27885C24.1361 9.70138 23.2146 11.2343 22.5063 12.8776C21.945 14.221 21.5442 15.5991 21.3038 17.0118C21.1448 17.7909 21.0593 18.5862 21.0472 19.3976C20.8739 22.6797 21.5611 25.7467 23.1087 28.5985C23.5969 29.4993 24.4514 30.7176 24.9385 31.6139C26.3004 34.1161 26.15 36.7924 24.6006 39.1206C20.6652 45.0337 10.5489 43.9521 8.36992 37.0195C7.80934 35.235 8.13258 33.2244 9.57696 31.9416C10.506 31.1154 12.0136 30.973 12.8342 32.0693C12.9924 32.4709 13.0549 32.9324 13.0218 33.4538C13.0142 33.5728 13.0896 33.7895 13.2478 34.1037C13.6117 34.8236 14.248 35.357 15.0437 35.5786C17.1797 36.173 18.9632 34.4314 19.1124 32.3519C19.3294 29.3354 17.477 26.5732 14.9047 25.2C11.1558 23.1996 6.61812 24.4315 3.87289 27.4954C3.3402 28.0779 2.8821 28.7172 2.49859 29.4134C1.67053 30.7854 1.15215 32.2268 0.943445 33.7375C0.722682 35.3303 0.746416 36.9299 1.01465 38.5363C1.24596 39.9882 1.65848 41.2702 2.2522 42.3823C4.36942 46.3485 7.53847 49.0538 11.7594 50.4982C12.4706 50.7415 13.1992 50.9295 13.9451 51.0621C16.8309 51.5768 19.7004 51.4392 22.5538 50.6496C25.652 49.7922 28.1558 48.0427 30.065 45.401C30.7446 44.4607 31.2502 43.5019 31.5817 42.5247L31.9084 41.416C31.9121 41.4031 31.9203 41.3919 31.9315 41.3845C31.9427 41.3771 31.9562 41.3739 31.9695 41.3756C31.9828 41.3772 31.9952 41.3835 32.0043 41.3934C32.0133 41.4033 32.0186 41.4161 32.0191 41.4295C32.1107 43.3373 32.0519 45.2756 32.0327 47.1867C32.0229 48.1798 31.9668 48.9291 31.8643 49.4347C31.4518 51.4701 30.1487 53.2558 28.5811 54.6155C27.808 55.2857 26.7118 55.9977 25.776 56.6758C24.6375 57.5008 23.6331 58.4528 22.7629 59.5318C20.5469 62.3791 19.52 65.6111 19.682 69.2277C19.8003 71.8889 20.7184 74.2758 22.4362 76.3885C23.8121 78.0808 25.4813 79.2777 27.4441 79.9791C33.3279 82.0824 39.6569 77.547 39.1009 71.2032C39.0157 70.2245 38.6974 69.3527 38.1459 68.588C37.2666 67.3662 35.6515 66.8407 34.2885 67.6194C33.3399 68.1611 32.8457 68.9704 32.8057 70.047C32.8005 70.1842 32.8329 70.4437 32.9029 70.8257C33.2352 72.634 31.6134 73.8806 29.9339 73.3201C27.9516 72.6589 27.0621 70.5308 27.2124 68.5767C27.5526 64.1362 31.6473 62.8862 34.7044 60.4619C37.4305 58.301 39.1348 55.4996 39.8174 52.0578C39.941 51.4347 40.0148 50.6869 40.0389 49.8144C40.0691 48.7588 40.0777 47.7025 40.0649 46.6454C40.0755 46.0727 40.0811 45.4997 40.0819 44.9263C40.0853 42.6242 42.9899 42.6897 42.9899 44.8145C42.9899 45.9838 42.9921 47.1521 42.9966 48.3192C42.9492 49.8065 43.0057 51.3153 43.3673 52.7371C44.2383 56.151 46.1442 58.8879 49.085 60.9479C50.5497 61.973 52.15 62.8161 53.4746 63.9926C55.7712 66.0304 56.6527 69.2096 54.9326 71.9266C54.1912 73.0986 52.6518 73.849 51.3092 73.2003C50.2973 72.712 49.8949 71.9311 50.1021 70.8574C50.1926 70.3918 50.2381 70.1484 50.2389 70.1273C50.3203 68.6185 48.8578 67.2397 47.3874 67.2363C45.2095 67.2295 44.1291 69.2333 43.9392 71.1569C43.8164 72.4016 43.9336 73.5329 44.2907 74.5508C44.9522 76.4345 46.0779 77.9169 47.6677 78.9981C49.9722 80.5634 52.9208 80.9082 55.5485 80.0119C57.8021 79.2434 59.6164 77.8713 60.9915 75.8958C63.3905 72.4487 63.9869 68.643 62.7806 64.4786C61.9797 61.7451 60.533 59.4493 58.4407 57.5912C56.9533 56.27 55.0817 55.3309 53.7153 53.9656C52.4721 52.7246 51.5149 51.2204 51.1295 49.4912C51.0338 49.061 50.9856 48.5 50.9848 47.8083C50.9826 45.6753 50.9818 43.5494 50.9826 41.4307C50.9817 41.4243 50.9834 41.4179 50.9873 41.4129C50.9912 41.4079 50.997 41.4048 51.0035 41.4042C51.0099 41.4036 51.0164 41.4056 51.0216 41.4097C51.0268 41.4138 51.0303 41.4197 51.0312 41.4262C51.1713 42.0199 51.3823 42.5838 51.6641 43.118C53.6159 47.5529 57.8869 50.436 62.6269 51.1718C66.0122 51.6969 69.3112 51.31 72.524 50.0111C77.299 48.0796 81.0218 43.6922 81.9633 38.6052C82.3739 36.3463 82.2632 34.1425 81.631 31.9936C81.1164 30.3262 80.3023 28.8686 79.1887 27.6209C78.1858 26.4425 77.0044 25.5681 75.6444 24.9977C72.9885 23.7726 69.7505 24.0246 67.3466 25.6284C64.9167 27.2502 63.131 30.5119 64.0973 33.4176C64.7844 35.2214 66.7656 36.3652 68.5559 35.3559C69.2464 34.9671 69.6815 34.367 69.885 33.6154C69.9776 33.2752 69.92 32.8797 69.9697 32.5022C70.0051 32.4449 70.0243 32.3779 70.0274 32.301C70.2828 31.8489 70.6637 31.5498 71.17 31.4036C72.6822 30.9651 73.9243 32.0603 74.4656 33.3702C75.2692 35.3141 74.6623 37.536 73.4903 39.1827C72.171 41.0355 70.3954 42.2022 68.1637 42.6829C66.5159 43.0378 64.9615 43.0322 63.5005 42.666C60.8367 41.998 58.4124 39.9886 57.4778 37.3654C56.8652 35.6445 56.9839 33.9089 57.8338 32.1586C58.1291 31.5521 58.5307 30.8547 59.0385 30.0666C61.1867 26.7371 62.1432 23.0666 61.9081 19.0552L61.8233 17.8753C61.6335 16.1461 61.1765 14.4783 60.4524 12.8719C59.6658 10.9129 58.5544 9.14797 57.1184 7.577C54.0842 4.20151 50.3459 2.00706 45.9035 0.993656C42.9891 0.329105 40.0502 0.335509 37.0869 1.01287C32.2934 2.10991 28.3547 4.5319 25.2708 8.27885Z" stroke="white" stroke-opacity="0.3" stroke-linecap="round" stroke-linejoin="round" stroke-dasharray="2 2"/>
<path d="M36.2195 27.818L34.3311 29.7064L36.2195 31.6127C36.4533 31.8285 36.4533 32.2062 36.2195 32.422C36.0037 32.6558 35.626 32.6558 35.4102 32.422L33.5218 30.5337L31.6155 32.422C31.3997 32.6558 31.022 32.6558 30.8062 32.422C30.5724 32.2062 30.5724 31.8285 30.8062 31.6127L32.6946 29.7064L30.8062 27.818C30.5724 27.6022 30.5724 27.2246 30.8062 27.0088C31.022 26.775 31.3997 26.775 31.6155 27.0088L33.5218 28.8971L35.4102 27.0088C35.626 26.775 36.0037 26.775 36.2195 27.0088C36.4533 27.2246 36.4533 27.6022 36.2195 27.818Z" fill="white" fill-opacity="0.3"/>
<path d="M52.1553 27.818L50.2669 29.7064L52.1553 31.6127C52.3891 31.8285 52.3891 32.2062 52.1553 32.422C51.9395 32.6558 51.5618 32.6558 51.346 32.422L49.4576 30.5337L47.5513 32.422C47.3355 32.6558 46.9578 32.6558 46.742 32.422C46.5082 32.2062 46.5082 31.8285 46.742 31.6127L48.6303 29.7064L46.742 27.818C46.5082 27.6022 46.5082 27.2246 46.742 27.0088C46.9578 26.775 47.3355 26.775 47.5513 27.0088L49.4576 28.8971L51.346 27.0088C51.5618 26.775 51.9395 26.775 52.1553 27.0088C52.3891 27.2246 52.3891 27.6022 52.1553 27.818Z" fill="white" fill-opacity="0.3"/>
</svg>
